# xmcd
#
# Track frame offsets:
# 151
# 12722
# 27057
# 38808
# 49537
# 63922
# 75643
# 89156
# 99121
# 109011
# 125998
# 135040
# 146849
# 158051
# 173202
# 183723
# 195490
# 207911
#
# Disc length: 2924 seconds
#
#
# Revision: 2
# Processed by: cddbd v1.5.1PL2 Copyright (c) Steve Scherf et al.
# Submitted via: FreeRIP 2.945 
#
DISCID=f30b6a12
DTITLE=Willie Nelson - Country Willie
DYEAR=2002
DGENRE=Country
TTITLE0=Country Willie
TTITLE1=Rainy Day Blues
TTITLE2=The Last Letter
TTITLE3=Touch Me
TTITLE4=Will You Remember Mine
TTITLE5=I Hope So
TTITLE6=A Moment Isn't Very Long
TTITLE7=Healing Hands Of Time
TTITLE8=Ashamed
TTITLE9=I Let My Mind Wander
TTITLE10=Right From Wrong
TTITLE11=Some Other Time
TTITLE12=A New Way To Cry
TTITLE13=Face Of A Fighter
TTITLE14=I Feel So Sorry For Him
TTITLE15=I'll Stay Around
TTITLE16=Pages
TTITLE17=Suffer In Silence
EXTD=Time Music
EXTT0=
EXTT1=
EXTT2=
EXTT3=
EXTT4=
EXTT5=
EXTT6=
EXTT7=
EXTT8=
EXTT9=
EXTT10=
EXTT11=
EXTT12=
EXTT13=
EXTT14=
EXTT15=
EXTT16=
EXTT17=
PLAYORDER=
